<svg xmlns="http://www.w3.org/2000/svg" width="68.665" height="68.665" viewBox="0 0 68.665 68.665"><defs><style>.a{fill:#e9faff;}.b{fill:#223a9b;}.c{fill:#fff;}.d{fill:#4ca645;}.e,.f,.g,.h{fill:none;}.f,.h{stroke:#223a9b;}.f,.g,.h{stroke-miterlimit:10;}.g{stroke:#4ca645;}.g,.h{stroke-width:2px;}</style></defs><g transform="translate(-6.54 -6.04)"><circle class="a" cx="34.332" cy="34.332" r="34.332" transform="translate(6.54 6.04)"/><path class="b" d="M67.617,83.9H41.237L40.15,88.489H68.878Z" transform="translate(-13.528 -31.339)"/><rect class="c" width="27.7" height="2.294" transform="translate(26.759 54.856)"/><path class="d" d="M41.29,66.947V55A13.187,13.187,0,0,1,54.483,41.78h0A13.187,13.187,0,0,1,67.67,54.973v11.95Z" transform="translate(-13.987 -14.385)"/><path class="c" d="M57.308,42.33h0a13.145,13.145,0,0,0-9.668,4.218,12.237,12.237,0,0,1,7.451-2.515h0a12.291,12.291,0,0,1,12.3,12.3V67.5h3.107V55.547A13.187,13.187,0,0,0,57.308,42.33Z" transform="translate(-16.543 -14.607)"/><path class="e" d="M70.147,97.029H33.7V93.839a2.253,2.253,0,0,1,2.253-2.259H67.889a2.259,2.259,0,0,1,2.259,2.259Z" transform="translate(-10.932 -34.43)"/><path class="b" d="M67.061,91.58H66.5a1.7,1.7,0,0,1,.98,1.446v2.5H32.86v1.488H69.307V93.839A2.253,2.253,0,0,0,67.061,91.58Z" transform="translate(-10.594 -34.43)"/><path class="f" d="M69.447,97.377H33V94.259A2.259,2.259,0,0,1,35.259,92h31.93a2.259,2.259,0,0,1,2.259,2.259Z" transform="translate(-10.65 -34.599)"/><path class="f" d="M41,67.035V54.995A13.145,13.145,0,0,1,54.145,41.85h0A13.145,13.145,0,0,1,67.29,54.995v12.04" transform="translate(-13.87 -14.414)"/><path class="f" d="M67.08,84H39.589L38.46,88.78H68.4Z" transform="translate(-12.848 -31.379)"/><line class="g" y2="2.987" transform="translate(40.872 15.576)"/><line class="g" x1="1.589" y2="2.748" transform="translate(52.47 18.874)"/><line class="g" x1="2.743" y2="1.583" transform="translate(60.883 28.446)"/><line class="g" x1="2.987" transform="translate(64.175 41.269)"/><line class="g" x2="3.585" transform="translate(14.582 41.269)"/><line class="g" x2="2.748" y2="1.583" transform="translate(18.347 28.446)"/><line class="g" x2="1.583" y2="2.748" transform="translate(27.919 18.874)"/><line class="h" y2="1.792" transform="translate(40.872 32.306)"/><line class="h" y2="1.792" transform="translate(40.872 35.294)"/><line class="h" y2="1.792" transform="translate(40.872 38.281)"/><line class="h" y2="1.792" transform="translate(40.872 41.269)"/><line class="h" y2="1.792" transform="translate(40.872 44.256)"/><line class="h" y2="1.792" transform="translate(40.872 47.244)"/></g></svg>